HIERARCHY
ROOT ui
{
	 OFFSET 0 0 0
	 CHANNELS 3 XPosition YPosition Z Position
	 EndSite
	 {
	 OFFSET 0 -1 0
	 }
}
ROOT li
{
	 OFFSET 0 0 0
	 CHANNELS 3 XPosition YPosition Z Position
	 EndSite
	 {
	 OFFSET 0 -1 0
	 }
}
ROOT ul
{
	 OFFSET 0 0 0
	 CHANNELS 3 XPosition YPosition Z Position
	 EndSite
	 {
	 OFFSET 0 -1 0
	 }
}
ROOT ll
{
	 OFFSET 0 0 0
	 CHANNELS 3 XPosition YPosition Z Position
	 EndSite
	 {
	 OFFSET 0 -1 0
	 }
}
ROOT tt
{
	 OFFSET 0 0 0
	 CHANNELS 3 XPosition YPosition Z Position
	 EndSite
	 {
	 OFFSET 0 -1 0
	 }
}
ROOT tb
{
	 OFFSET 0 0 0
	 CHANNELS 3 XPosition YPosition Z Position
	 EndSite
	 {
	 OFFSET 0 -1 0
	 }
}
ROOT td
{
	 OFFSET 0 0 0
	 CHANNELS 3 XPosition YPosition Z Position
	 EndSite
	 {
	 OFFSET 0 -1 0
	 }
}
ROOT v
{
	 OFFSET 0 0 0
	 CHANNELS 3 XPosition YPosition Z Position
	 EndSite
	 {
	 OFFSET 0 -1 0
	 }
}
ROOT bn
{
	 OFFSET 0 0 0
	 CHANNELS 3 XPosition YPosition Z Position
	 EndSite
	 {
	 OFFSET 0 -1 0
	 }
}
MOTION
Frames: 24
Frame Time: 0.002
0.004156713962554932	2.097409963607788E-4	0		0.47968084716796877	-2.38713134765625	0		-1.0987955322265626	0.011625190734863282	0		-0.7650240478515625	-2.559626708984375	0		1.4455635986328126	-0.7223213500976563	0		3.143496337890625	-0.0675175552368164	0		4.74314453125	0.16570223999023437	0		5.577337890625	0.12183753204345703	0		-0.37394296264648436	5.9094912109375	0		
-0.015066061973571777	-0.004445730209350586	0		0.4544335632324219	-2.38372705078125	0		-1.0979451904296875	0.011737176895141602	0		-0.731407958984375	-2.565027587890625	0		1.463307861328125	-0.7266171875	0		3.142521484375	-0.055634220123291014	0		4.73321435546875	0.1796228485107422	0		5.57793505859375	0.12133993530273438	0		-0.37175006103515623	5.90854443359375	0		
0.0018314059972763062	-0.0036403539180755616	0		0.4811278991699219	-2.38709912109375	0		-1.1651123046875	0.008867930412292481	0		-0.7635977783203125	-2.55944482421875	0		1.4472109375	-0.7224053344726562	0		3.1592060546875	-0.06901569366455078	0		4.7448984375	0.16522158813476562	0		5.578556640625	0.12084999847412109	0		-0.4055690002441406	5.90513671875	0		
-0.018198514938354494	7.179229855537414E-4	0		0.43202618408203125	-2.378331787109375	0		-1.160159423828125	0.011916104316711426	0		-0.761805419921875	-2.5573740234375	0		1.453986572265625	-0.7285345458984375	0		3.150336669921875	-0.05400359725952148	0		4.73990673828125	0.17108442687988282	0		5.58212451171875	0.13238835144042968	0		-0.23793826293945314	5.92969921875	0		
0.015688234329223633	-0.0017396969795227051	0		0.48677142333984375	-2.382130126953125	0		-1.165161865234375	0.017106544494628905	0		-0.7939386596679687	-2.55179638671875	0		1.452020751953125	-0.7185263061523437	0		3.15601220703125	-0.07020165252685547	0		4.7508349609375	0.17072613525390626	0		5.5827734375	0.13196145629882813	0		-0.35387646484375	5.91952099609375	0		
-0.016353002548217775	7.963399887084961E-4	0		0.4855559997558594	-2.384085205078125	0		-1.094304931640625	0.012136610984802246	0		-0.7612416381835938	-2.559207275390625	0		1.446806884765625	-0.72546484375	0		3.1611455078125	-0.05637289810180664	0		4.74176904296875	0.1706950225830078	0		5.5834267578125	0.13158549499511718	0		-0.23452507019042967	5.9287841796875	0		
0.009564430236816406	4.505470097064972E-4	0		0.48433633422851563	-2.387040283203125	0		-1.1673604736328125	0.014337995529174804	0		-0.7624530639648438	-2.56111279296875	0		1.4507435302734375	-0.72253466796875	0		3.16694140625	-0.06453993225097657	0		4.74781689453125	0.17846340942382813	0		5.576978515625	0.13671803283691406	0		-0.36667327880859374	5.9098505859375	0		
-0.009601643562316894	-0.004214585781097412	0		0.459213623046875	-2.383630859375	0		-1.160529052734375	0.009315905570983886	0		-0.7616302490234375	-2.5610576171875	0		1.428599609375	-0.7242022705078125	0		3.152864013671875	-0.06338661956787109	0		4.743609375	0.17041304016113282	0		5.58472021484375	0.131001953125	0		-0.3645848999023438	5.9088779296875	0		
0.011359607696533203	5.064759850502014E-4	0		0.4371463623046875	-2.376266357421875	0		-1.1555960693359375	0.012312285423278809	0		-0.7797943115234375	-2.559720703125	0		1.461448486328125	-0.7257022705078126	0		3.16453466796875	-0.07761112976074219	0		4.74937841796875	0.16223655700683592	0		5.58534912109375	0.13079165649414062	0		-0.34643365478515625	5.91565380859375	0		
-0.0017490379810333253	0.002743256092071533	0		0.49190335083007813	-2.380076904296875	0		-1.1547366943359374	0.012359965324401855	0		-0.7549154052734375	-2.55504833984375	0		1.4364176025390625	-0.7173134155273437	0		3.156866943359375	-0.046520492553710935	0		4.7453642578125	0.17023541259765626	0		5.588888671875	0.142634521484375	0		-0.2160678253173828	5.93971044921875	0		
-0.007032763957977295	-0.004143548011779785	0		0.46366082763671873	-2.381620361328125	0		-1.1638822021484374	0.014551650047302246	0		-0.7571943359375	-2.55896923828125	0		1.454150390625	-0.7225751342773438	0		3.15235302734375	-0.06847114562988281	0		4.75131103515625	0.17810301208496093	0		5.5865439453125	0.13051559448242187	0		-0.3626228332519531	5.90998681640625	0		
-0.011177769660949707	9.507139921188355E-4	0		0.4883307189941406	-2.386974609375	0		-1.0891280517578126	0.012451362609863282	0		-0.7584776611328125	-2.5609111328125	0		1.4549195556640624	-0.7225744018554687	0		3.156206298828125	-0.06353739547729492	0		4.7438779296875	0.16418809509277343	0		5.58416796875	0.11842972564697266	0		-0.3958462829589844	5.9055302734375	0		
-0.01449654483795166	-0.0019710860252380373	0		0.4391629333496094	-2.378197998046875	0		-1.1564544677734374	0.009520221710205078	0		-0.7577755126953125	-2.560887451171875	0		1.45259375	-0.7255255737304688	0		3.167839111328125	-0.06971894073486327	0		4.73972900390625	0.1722347412109375	0		5.58468505859375	0.11836697387695312	0		-0.36099038696289065	5.910029296875	0		
-0.009779589653015137	9.829450249671935E-4	0		0.4917318420410156	-2.383982421875	0		-1.15766015625	0.017575132369995118	0		-0.754064453125	-2.556911865234375	0		1.436322509765625	-0.7212620849609375	0		3.14781884765625	-0.04941033935546875	0		4.74837060546875	0.17008840942382814	0		5.58809130859375	0.13031703186035157	0		-0.3933576965332031	5.90455419921875	0		
-0.006118804931640625	0.003952213048934936	0		0.46943798828125	-2.376618896484375	0		-1.08306884765625	0.015465453147888183	0		-0.7514392700195313	-2.554921142578125	0		1.476896484375	-0.7238710327148438	0		3.16410986328125	-0.07066276550292969	0		4.74898681640625	0.17006607055664064	0		5.588529296875	0.13026791381835937	0		-0.3596073303222656	5.91006591796875	0		
0.016392433166503906	6.313080191612244E-4	0		0.49286822509765627	-2.38395849609375	0		-1.1605303955078126	0.014687289237976074	0		-0.75396142578125	-2.5588525390625	0		1.457468017578125	-0.722560302734375	0		3.16888330078125	-0.05673553848266601	0		4.74467138671875	0.17811906433105468	0		5.58182861328125	0.13567251586914061	0		-0.3580145263671875	5.90906982421875	0		
-1.1499900370836258E-4	-9.075000137090683E-5	0		0.4673869934082031	-2.381547119140625	0		-1.0860484619140625	0.01257878589630127	0		-0.72055859375	-2.564334716796875	0		1.4749041748046876	-0.7268165283203125	0		3.159282470703125	-0.06359196853637696	0		4.76005419921875	0.16986520385742188	0		5.589287109375	0.1301636657714844	0		-0.3584413452148438	5.91010546875	0		
-0.011691704750061035	-0.001888388991355896	0		0.49173736572265625	-2.386901611328125	0		-1.153649169921875	0.009651762008666992	0		-0.755080078125	-2.56077294921875	0		1.4384310302734375	-0.7212449951171875	0		3.159734619140625	-0.06360411834716796	0		4.74741796875	0.16403823852539062	0		5.5866787109375	0.1181017837524414	0		-0.3920054626464844	5.9056494140625	0		
7.372760176658631E-4	-5.4365001618862154E-5	0		0.4531328430175781	-2.385288818359375	0		-1.1492037353515625	0.012620184898376465	0		-0.738739013671875	-2.5629921875	0		1.4647127685546875	-0.7286397705078125	0		3.1709169921875	-0.07778496551513672	0		4.7509111328125	0.16996189880371093	0		5.58989208984375	0.13003961181640625	0		-0.3393830261230469	5.91587158203125	0		
0.004130955219268799	0.0029185330867767334	0		0.4995887756347656	-2.376982666015625	0		-1.148855712890625	0.012651604652404785	0		-0.7492935791015625	-2.554796875	0		1.445270751953125	-0.7143297729492187	0		3.177740234375	-0.04689467620849609	0		4.7512607421875	0.16993159484863282	0		5.590138671875	0.12997346496582032	0		-0.3389732666015625	5.91589453125	0		
-0.003554966926574707	0.004061684131622314	0		0.4687886047363281	-2.381489990234375	0		-1.15852587890625	0.014837348937988281	0		-0.75208349609375	-2.558722412109375	0		1.459436279296875	-0.7225390014648437	0		3.16077783203125	-0.06364373397827149	0		4.751560546875	0.16990263366699218	0		5.590349609375	0.1299097442626953	0		-0.35670452880859377	5.91019580078125	0		
-0.0014292429685592652	-0.003947602987289429	0		0.494980712890625	-2.3838740234375	0		-1.158276611328125	0.014869125366210937	0		-0.7538897705078125	-2.56066357421875	0		1.456632568359375	-0.725486083984375	0		3.1711328125	-0.056808712005615235	0		4.753841796875	0.1718459930419922	0		5.58759619140625	0.11785069274902343	0		-0.38948651123046873	5.90472900390625	0		
-0.0012269949913024903	-0.00392745304107666	0		0.46919677734375	-2.381457763671875	0		-1.15807421875	0.014899037361145019	0		-0.7537091064453125	-2.560636962890625	0		1.4568287353515625	-0.725478271484375	0		3.16122802734375	-0.06366042709350586	0		4.7489228515625	0.1639040069580078	0		5.58132080078125	0.11804502868652343	0		-0.22382257080078125	5.93020654296875	0		
-0.005991682052612305	0.0011683559417724608	0		0.4444187927246094	-2.376056884765625	0		-1.147948486328125	0.012772098541259765	0		-0.82040625	-2.5495810546875	0		1.465934326171875	-0.72860693359375	0		3.16252392578125	-0.05467844772338867	0		4.752173828125	0.16984503173828125	0		5.5907802734375	0.12977757263183592	0		-0.374869873046875	5.91555712890625	0		
